<svg xmlns="http://www.w3.org/2000/svg" viewBox="0 0 64 64">
  <defs>
    <linearGradient id="bg" x1="0%" y1="0%" x2="100%" y2="100%">
      <stop offset="0%" stop-color="#2563eb"/>
      <stop offset="100%" stop-color="#06b6d4"/>
    </linearGradient>
  </defs>

  <!-- Rounded background -->
  <rect x="4" y="4" width="56" height="56" rx="16" fill="url(#bg)"/>

  <!-- Chat bubble -->
  <path
    d="M18 20c0-3.3 2.7-6 6-6h16c3.3 0 6 2.7 6 6v12c0 3.3-2.7 6-6 6H31l-9 8v-8h-2c-3.3 0-6-2.7-6-6V20z"
    fill="white"
  />

  <!-- Flow lines -->
  <circle cx="27" cy="27" r="2.5" fill="#2563eb"/>
  <circle cx="34" cy="27" r="2.5" fill="#2563eb"/>
  <circle cx="41" cy="27" r="2.5" fill="#2563eb"/>

  <!-- Lightning/flow accent -->
  <path
    d="M36 38l-6 10h5l-2 8 8-12h-5l2-6z"
    fill="#f59e0b"
  />
</svg>